<?xml version="1.0" encoding="UTF-8"?>
    <!DOCTYPE svg PUBLIC "-//W3C//DTD SVG 1.1//EN" "http://www.w3.org/Graphics/SVG/1.1/DTD/svg11.dtd">
    <svg xmlns="http://www.w3.org/2000/svg" version="1.1" width="25px" height="25px" style="shape-rendering:geometricPrecision; text-rendering:geometricPrecision; image-rendering:optimizeQuality; fill-rule:evenodd; clip-rule:evenodd" xmlns:xlink="http://www.w3.org/1999/xlink">
        <g><path style="opacity:1" fill="#f3f4f6" d="M 252.5,203.5 C 273.994,202.503 295.66,202.169 317.5,202.5C 317.5,197.167 317.5,191.833 317.5,186.5C 289.5,186.5 261.5,186.5 233.5,186.5C 233.5,232.833 233.5,279.167 233.5,325.5C 232.501,279.003 232.168,232.336 232.5,185.5C 261.167,185.5 289.833,185.5 318.5,185.5C 318.5,191.5 318.5,197.5 318.5,203.5C 296.5,203.5 274.5,203.5 252.5,203.5 Z"/></g>
        <g><path style="opacity:1" fill="#f3f4f6" d="M 83.5,185.5 C 89.2055,185.171 94.8722,185.505 100.5,186.5C 112.868,209.041 125.034,231.708 137,254.5C 149,231.833 161,209.167 173,186.5C 178.667,185.167 184.333,185.167 190,186.5C 195.936,232.881 202.102,279.215 208.5,325.5C 201.833,325.5 195.167,325.5 188.5,325.5C 184,290.836 179.5,256.169 175,221.5C 162.246,244.674 149.746,268.008 137.5,291.5C 124.429,268.362 111.595,245.029 99,221.5C 93.573,256.019 89.073,290.685 85.5,325.5C 78.8333,325.5 72.1667,325.5 65.5,325.5C 71.7803,278.871 77.7803,232.204 83.5,185.5 Z"/></g>
        <g><path style="opacity:1" fill="#f3f4f6" d="M 252.5,203.5 C 252.5,216.833 252.5,230.167 252.5,243.5C 269.17,243.333 285.837,243.5 302.5,244C 303.833,249.667 303.833,255.333 302.5,261C 285.837,261.5 269.17,261.667 252.5,261.5C 252.5,282.833 252.5,304.167 252.5,325.5C 246.167,325.5 239.833,325.5 233.5,325.5C 233.5,279.167 233.5,232.833 233.5,186.5C 261.5,186.5 289.5,186.5 317.5,186.5C 317.5,191.833 317.5,197.167 317.5,202.5C 295.66,202.169 273.994,202.503 252.5,203.5 Z"/></g>
        <g><path style="opacity:1" fill="#f3f4f6" d="M 358.5,186.5 C 351.833,186.5 345.167,186.5 338.5,186.5C 338.5,232.833 338.5,279.167 338.5,325.5C 337.501,279.003 337.168,232.336 337.5,185.5C 344.687,185.175 351.687,185.509 358.5,186.5 Z"/></g>
        <g><path style="opacity:1" fill="#f3f4f6" d="M 358.5,186.5 C 380.82,220.463 403.153,254.463 425.5,288.5C 425.56,289.043 425.893,289.376 426.5,289.5C 427.5,255.173 427.833,220.84 427.5,186.5C 433.5,186.5 439.5,186.5 445.5,186.5C 445.5,232.833 445.5,279.167 445.5,325.5C 439.907,325.807 434.407,325.473 429,324.5C 405.725,288.929 382.225,253.596 358.5,218.5C 358.217,217.711 357.717,217.044 357,216.5C 356.5,252.832 356.333,289.165 356.5,325.5C 350.5,325.5 344.5,325.5 338.5,325.5C 338.5,279.167 338.5,232.833 338.5,186.5C 345.167,186.5 351.833,186.5 358.5,186.5 Z"/></g>
        <g><path style="opacity:1" fill="#f3f4f6" d="M 427.5,186.5 C 427.833,220.84 427.5,255.173 426.5,289.5C 425.893,289.376 425.56,289.043 425.5,288.5C 426.167,254.5 426.833,220.5 427.5,186.5 Z"/></g>
        <g><path style="opacity:1" fill="#f3f4f6" d="M 427.5,186.5 C 433.645,185.51 439.978,185.177 446.5,185.5C 446.832,232.336 446.499,279.003 445.5,325.5C 445.5,279.167 445.5,232.833 445.5,186.5C 439.5,186.5 433.5,186.5 427.5,186.5 Z"/></g>
        <g><path style="opacity:1" fill="#f3f4f6" d="M 358.5,218.5 C 357.833,254.167 357.167,289.833 356.5,325.5C 356.333,289.165 356.5,252.832 357,216.5C 357.717,217.044 358.217,217.711 358.5,218.5 Z"/></g>
    </svg>