<svg xmlns="http://www.w3.org/2000/svg" width="512" height="512" shape-rendering="geometricPrecision" text-rendering="geometricPrecision" image-rendering="optimizeQuality" fill-rule="evenodd" clip-rule="evenodd">
    <path fill="#f3f4f6" d="M252.5 203.5c21.494-.997 43.16-1.331 65-1v-16h-84v139a4900.286 4900.286 0 01-1-140h86v18h-66zM83.5 185.5a73.134 73.134 0 0117 1 4198.403 4198.403 0 0136.5 68l36-68c5.667-1.333 11.333-1.333 17 0a13927.077 13927.077 0 0018.5 139h-20l-13.5-104a3515.547 3515.547 0 00-37.5 70 3513.545 3513.545 0 01-38.5-70 1953.848 1953.848 0 00-13.5 104h-20c6.28-46.629 12.28-93.296 18-140z"/><path fill="#0b0f19" d="M252.5 203.5v40c16.67-.167 33.337 0 50 .5 1.333 5.667 1.333 11.333 0 17-16.663.5-33.33.667-50 .5v64h-19v-139h84v16c-21.84-.331-43.506.003-65 1zM358.5 186.5h-20v139a4900.286 4900.286 0 01-1-140c7.187-.325 14.187.009 21 1z"/><path fill="#0b0f19" d="M358.5 186.5c22.32 33.963 44.653 67.963 67 102 .06.543.393.876 1 1 1-34.327 1.333-68.66 1-103h18v139a70.907 70.907 0 01-16.5-1 8470.698 8470.698 0 00-70.5-106c-.283-.789-.783-1.456-1.5-2-.5 36.332-.667 72.665-.5 109h-18v-139h20z"/><path fill="#0b0f19" d="M427.5 186.5c.333 34.34 0 68.673-1 103-.607-.124-.94-.457-1-1l2-102zM427.5 186.5c6.145-.99 12.478-1.323 19-1 .332 46.836-.001 93.503-1 140v-139h-18zM358.5 218.5l-2 107c-.167-36.335 0-72.668.5-109 .717.544 1.217 1.211 1.5 2z"/>
</svg>